<?xml version="1.0" encoding="utf-8"?>
<!-- Generator: Adobe Illustrator 24.3.0, SVG Export Plug-In . SVG Version: 6.00 Build 0)  -->
<svg version="1.1" id="Layer_1" xmlns="http://www.w3.org/2000/svg" xmlns:xlink="http://www.w3.org/1999/xlink" x="0px" y="0px"
	 viewBox="0 0 512 512" style="enable-background:new 0 0 512 512;" xml:space="preserve">
<style type="text/css">
	.st0{fill:#010101;}
	.st1{fill:#E41E26;}
</style>
<g id="XMLID_1_">
	<path id="XMLID_3_" class="st0" d="M44.61,241.99h-1.54c-2.52-9.96-8-14.87-16.69-14.87c-11.64,0-18.8,9.4-18.8,24.27
		c0,15.85,7.72,26.51,19.36,26.51c7.86,0,13.89-3.93,17.67-11.64l1.26,1.26c-3.37,8.42-11.36,13.75-21.04,13.75
		C10.38,281.27,0,270.18,0,254.9c0-16.97,10.94-29.32,26.09-29.32c3.65,0,6.03,0.42,11.08,1.82c1.54,0.42,2.1,0.42,2.81,0.42
		c1.26,0,2.24-0.56,2.81-1.68h1.4L44.61,241.99z"/>
	<path id="XMLID_4_" class="st0" d="M101.14,280H64.67v-1.54h0.56c3.93,0,5.19-2.52,5.19-10.1v-29.74l0.14-2.38
		c0-5.33-1.54-7.72-5.05-7.72h-0.84v-1.54h18.1v1.54h-0.7c-3.93,0-5.19,2.38-5.19,10.1v30.02v3.37c0,4.49,0.98,5.47,4.91,5.61
		l2.95,0.14h8c6.17,0,7.72-1.4,9.96-9.12h1.54L101.14,280z"/>
	<path id="XMLID_7_" class="st0" d="M159.35,270.33c1.96,6.45,3.09,7.72,5.75,8l1.26,0.14l0.7,0.14v1.54h-17.67v-1.68
		c2.81,0,4.35-1.12,4.35-3.09c0-0.84-0.14-1.4-0.98-3.93l-4.07-12.91h-16.27l-3.37,10.66c-0.84,2.81-1.26,4.77-1.26,5.89
		c0,2.24,1.12,3.23,4.07,3.37V280h-13.05v-1.54c3.51-0.42,5.61-2.38,7.01-6.87l0.42-1.54l14.03-43.77h5.33L159.35,270.33z
		 M140.69,232.73h-0.14l-7.01,22.58h14.31L140.69,232.73z"/>
	<path id="XMLID_8_" class="st0" d="M212.37,238.62h-1.54l-0.14-0.7c-0.98-4.21-1.96-6.31-4.21-8.14c-1.96-1.54-4.35-2.52-6.87-2.52
		c-5.33,0-9.12,3.65-9.12,8.42c0,2.67,1.26,5.47,3.23,7.57c1.26,1.26,2.67,2.38,4.21,3.37c1.12,0.7,3.09,2.1,5.75,3.79
		c4.07,2.67,6.03,4.35,7.86,6.59c2.24,2.81,3.37,5.89,3.37,9.12c0,8.42-6.45,15.15-14.31,15.15c-2.67,0-4.21-0.42-8.42-1.82
		c-1.96-0.7-2.81-0.98-3.23-0.98c-0.84,0-1.54,0.7-1.96,2.1h-1.12v-14.45h1.54l0.14,0.98c0.7,5.05,1.68,7.01,4.63,9.26
		c2.1,1.82,4.77,2.81,7.43,2.81c6.03,0,10.1-3.93,10.1-9.68c0-3.23-1.12-5.47-4.21-8.14c-1.82-1.68-3.79-3.09-5.89-4.49
		c-3.23-2.24-5.33-3.65-6.45-4.49c-1.26-0.98-2.52-2.1-3.65-3.51c-2.24-2.95-3.23-6.03-3.23-9.82c0-8.14,5.61-13.75,13.75-13.75
		c2.52,0,4.07,0.28,7.01,1.26c1.82,0.7,2.38,0.7,2.95,0.7c0.7,0,0.98-0.28,1.26-1.12c0-0.14,0.14-0.14,0.14-0.42h1.26L212.37,238.62
		L212.37,238.62z"/>
	<path id="XMLID_9_" class="st0" d="M261.05,238.62h-1.54l-0.14-0.7c-0.98-4.21-1.96-6.31-4.21-8.14c-1.96-1.54-4.35-2.52-6.87-2.52
		c-5.33,0-9.12,3.65-9.12,8.42c0,2.67,1.26,5.47,3.23,7.57c1.26,1.26,2.67,2.38,4.21,3.37c1.12,0.7,3.09,2.1,5.75,3.79
		c4.07,2.67,6.03,4.35,7.86,6.59c2.24,2.81,3.37,5.89,3.37,9.12c0,8.42-6.45,15.15-14.31,15.15c-2.67,0-4.21-0.42-8.42-1.82
		c-1.96-0.7-2.81-0.98-3.23-0.98c-0.84,0-1.54,0.7-1.96,2.1h-1.54v-14.45h1.54l0.14,0.98c0.7,5.05,1.68,7.01,4.63,9.26
		c2.1,1.82,4.77,2.81,7.43,2.81c6.03,0,10.1-3.93,10.1-9.68c0-3.23-1.12-5.47-4.21-8.14c-1.82-1.68-3.79-3.09-5.89-4.49
		c-3.23-2.24-5.33-3.65-6.59-4.49c-1.26-0.98-2.52-2.1-3.65-3.51c-2.24-2.95-3.23-6.03-3.23-9.82c0-8.14,5.61-13.75,13.75-13.75
		c2.52,0,4.07,0.28,7.01,1.26c1.82,0.7,2.38,0.7,2.95,0.7c0.7,0,0.98-0.28,1.26-1.12c0-0.14,0.14-0.14,0.14-0.42h1.26L261.05,238.62
		L261.05,238.62z"/>
	<path id="XMLID_10_" class="st0" d="M298.92,280h-18.1v-1.54h0.7c3.65,0,5.05-2.38,5.05-8.42v-1.68v-29.74v-1.68
		c0-6.03-1.54-8.42-5.05-8.42h-0.7v-1.54h18.1v1.54h-0.56c-3.65,0-5.05,2.38-5.05,8.42v1.68v29.74v1.68c0,6.03,1.4,8.42,5.05,8.42
		h0.56V280z"/>
	<path id="XMLID_11_" class="st0" d="M363.17,241.99h-1.54c-2.38-9.96-8-14.87-16.69-14.87c-11.64,0-18.8,9.4-18.8,24.27
		c0,15.85,7.72,26.51,19.36,26.51c8,0,13.89-3.93,17.67-11.64l1.26,1.26c-3.37,8.42-11.36,13.75-21.04,13.75
		c-14.45,0-24.83-11.08-24.83-26.37c0-16.97,11.08-29.32,26.09-29.32c3.65,0,6.03,0.42,11.08,1.82c1.54,0.42,2.1,0.42,2.81,0.42
		c1.26,0,2.24-0.56,2.67-1.68h1.4L363.17,241.99z"/>
	<path id="XMLID_12_" class="st0" d="M508.91,228.8c-3.93,0.42-5.75,2.38-5.75,7.01c0,0.28,0.14,0.7,0.14,0.98l2.24,32.68
		c0.42,6.45,2.1,8.56,6.45,9.12v1.54h-18.1v-1.68c3.23-0.28,5.05-2.24,5.05-5.61c0-0.98-0.14-2.1-0.14-3.51l-2.1-33.1h-0.14
		l-17.11,43.91h-1.4l-16.83-43.91h-0.14l-2.38,32.68c-0.14,0.42-0.14,0.98-0.14,1.4c0,5.05,1.82,7.29,6.17,8.28v1.54h-15.71v-1.68
		c4.63-0.56,6.31-3.09,6.73-10.1l2.81-36.19c-1.96-2.24-3.65-3.09-6.73-3.65v-1.54h12.91l16.13,41.94l16.41-41.66h11.92
		L508.91,228.8L508.91,228.8z"/>
	<path id="XMLID_13_" class="st1" d="M465.15,211.27c-2.24,10.52-12.91,8.14-14.59,3.93c-3.37-8.28,3.09-12.62,7.15-11.78
		c-1.82-4.35-7.29-3.93-10.1-2.24c-8,5.33-9.96,16.55-12.2,25.25h10.38v2.1h-10.8c-8,30.72-18.66,68.87-39.84,83.88
		c-4.07,2.52-8.56,2.1-11.36,0.98c-2.95-0.98-6.03-5.47-5.47-10.38c0.42-2.95,3.09-7.29,7.57-7.29c5.19,0,6.87,3.51,7.43,6.45
		c0.42,2.95-0.42,7.01-4.63,7.86c0.84,0.98,3.23,1.82,6.73-1.54c10.66-12.06,14.59-53.72,25.25-80.1c0,0-10.66-0.14-10.66,0v-2.1
		h11.5c5.33-12.62,13.75-25.39,27.49-28.34C464.03,195.56,465.71,207.9,465.15,211.27"/>
</g>
</svg>
